<svg id="add_to_cart" xmlns="http://www.w3.org/2000/svg" width="20.3" height="19.087" viewBox="0 0 20.3 19.087">
  <g id="Cart_">
    <path id="Path_240" data-name="Path 240" d="M22.156,6.642a.669.669,0,0,0-.237-.18.721.721,0,0,0-.3-.065H6.148l-.8-2.18A.633.633,0,0,0,5.1,3.908a.713.713,0,0,0-.394-.118H2.677a.7.7,0,0,0-.478.184.6.6,0,0,0,0,.887.7.7,0,0,0,.478.184H4.223L8.671,17.17a.634.634,0,0,0,.247.307.713.713,0,0,0,.393.117h9.6a.7.7,0,0,0,.478-.184.6.6,0,0,0,0-.887.7.7,0,0,0-.478-.184H9.781l-.494-1.352h10.3A.712.712,0,0,0,20,14.858a.627.627,0,0,0,.243-.336l2.03-7.335a.583.583,0,0,0,.008-.286.608.608,0,0,0-.13-.26Z" transform="translate(-2 -3.79)" fill="#fff"/>
    <path id="Path_241" data-name="Path 241" d="M26.949,49.49a2.28,2.28,0,0,0,0,4.56A2.28,2.28,0,0,0,26.949,49.49Z" transform="translate(-17.439 -34.963)" fill="#fff"/>
    <path id="Path_242" data-name="Path 242" d="M44.359,49.49a2.28,2.28,0,0,0,0,4.56A2.28,2.28,0,0,0,44.359,49.49Z" transform="translate(-29.285 -34.963)" fill="#fff"/>
  </g>
</svg>
