<svg xmlns="http://www.w3.org/2000/svg" width="40" height="20" viewBox="0 0 40 20">
  <g id="cash-svgrepo-com" transform="translate(0 -122)">
    <path id="Path_766" data-name="Path 766" d="M39.082,127.6H.918a.9.9,0,0,0-.918.918v17.7a.9.9,0,0,0,.918.918h38.1a.9.9,0,0,0,.918-.918v-17.7A.811.811,0,0,0,39.082,127.6Z" transform="translate(0 -5.141)" fill="#7eaa84"/>
    <path id="Path_767" data-name="Path 767" d="M39.082,122H.918a.9.9,0,0,0-.918.918v17.7a.9.9,0,0,0,.918.918h38.1a.9.9,0,0,0,.918-.918v-17.7A.811.811,0,0,0,39.082,122Z" fill="#b1ddb7"/>
    <path id="Path_768" data-name="Path 768" d="M39.082,142.341a.9.9,0,0,0,.918-.918v-17.7a.9.9,0,0,0-.918-.918H.918a.9.9,0,0,0-.918.918" transform="translate(0 -0.734)" fill="#95c19d"/>
    <path id="Path_769" data-name="Path 769" d="M56.393,146.407a3.218,3.218,0,0,1-3.213-3.213.832.832,0,0,1,.066-.393h-29.7c0,.131.066.262.066.393a3.218,3.218,0,0,1-3.213,3.213.832.832,0,0,1-.393-.066v9.049c.131,0,.262-.066.393-.066a3.218,3.218,0,0,1,3.213,3.213.491.491,0,0,1-.066.328H53.115a2.84,2.84,0,0,0-.066-.328,3.218,3.218,0,0,1,3.213-3.213.832.832,0,0,1,.393.066v-9.049C56.59,146.407,56.525,146.407,56.393,146.407Z" transform="translate(-18.361 -19.095)" fill="#52a85a"/>
    <path id="Path_770" data-name="Path 770" d="M90.57,142.393a.832.832,0,0,1,.066-.393H61c0,.131.066.262.066.393a2.661,2.661,0,0,1-.262,1.246l29.77,14.23h0a3.218,3.218,0,0,1,3.213-3.213.832.832,0,0,1,.393.066v-9.115c-.131,0-.262.066-.393.066A3.233,3.233,0,0,1,90.57,142.393Z" transform="translate(-55.816 -18.361)" fill="#4d9356"/>
    <g id="Group_1241" data-name="Group 1241" transform="translate(1.574 123.508)">
      <path id="Path_771" data-name="Path 771" d="M19.462,142.761a.262.262,0,1,1,0-.525,1.6,1.6,0,0,0,1.574-1.574.262.262,0,1,1,.525,0A2.071,2.071,0,0,1,19.462,142.761Z" transform="translate(-19.2 -140.4)" fill="#52a85a"/>
      <path id="Path_772" data-name="Path 772" d="M22.23,315.233a.262.262,0,1,1-.525,0,1.6,1.6,0,0,0-1.574-1.574c0,.066-.131-.066-.131-.2a.282.282,0,0,1,.262-.262A1.988,1.988,0,0,1,22.23,315.233Z" transform="translate(-19.934 -299.036)" fill="#52a85a"/>
      <path id="Path_773" data-name="Path 773" d="M442.1,313.2a.262.262,0,1,1,0,.525,1.6,1.6,0,0,0-1.574,1.574.262.262,0,0,1-.525,0A2.113,2.113,0,0,1,442.1,313.2Z" transform="translate(-405.508 -299.036)" fill="#52a85a"/>
      <path id="Path_774" data-name="Path 774" d="M440.8,142.262a.262.262,0,1,1,.525,0,1.6,1.6,0,0,0,1.574,1.574.262.262,0,0,1,0,.525A2.155,2.155,0,0,1,440.8,142.262Z" transform="translate(-406.243 -141.869)" fill="#52a85a"/>
    </g>
    <circle id="Ellipse_85" data-name="Ellipse 85" cx="6.426" cy="6.426" r="6.426" transform="translate(13.574 125.344)" fill="#7eaa84"/>
    <path id="Path_775" data-name="Path 775" d="M174.23,221.069a6.443,6.443,0,0,0,6.1-4.393l-2.1-2.1a1.31,1.31,0,0,0-1.77,0l-.459.459-2.492-2.492a1.31,1.31,0,0,0-1.77,0L168,216.282A6.531,6.531,0,0,0,174.23,221.069Z" transform="translate(-154.23 -82.807)" fill="#49754c"/>
    <g id="Group_1242" data-name="Group 1242" transform="translate(13.77 129.459)">
      <path id="Path_776" data-name="Path 776" d="M266.911,239a1.31,1.31,0,0,1,1.771,0l-.852-.852a1.31,1.31,0,0,0-1.77,0l-.459.459.852.852Z" transform="translate(-257.6 -235.767)" fill="#5e8e63"/>
      <path id="Path_777" data-name="Path 777" d="M168.852,217.934l3.738-3.738a1.31,1.31,0,0,1,1.77,0l-.852-.852a1.31,1.31,0,0,0-1.77,0L168,217.082a6.028,6.028,0,0,0,2.1,3.213A6.292,6.292,0,0,1,168.852,217.934Z" transform="translate(-168 -213)" fill="#5e8e63"/>
    </g>
    <path id="Path_778" data-name="Path 778" d="M164.682,168.964a7.082,7.082,0,1,1,7.082-7.082A7.053,7.053,0,0,1,164.682,168.964Zm0-12.918a5.836,5.836,0,1,0,5.836,5.836A5.849,5.849,0,0,0,164.682,156.046Z" transform="translate(-144.682 -30.111)" fill="#99d1a0"/>
    <path id="Path_779" data-name="Path 779" d="M175.921,166.289a6.769,6.769,0,0,0,.984-3.607,7.078,7.078,0,0,0-13.7-2.492l1.115.525a5.831,5.831,0,0,1,11.344,1.9,6.212,6.212,0,0,1-.852,3.082Z" transform="translate(-149.823 -30.846)" fill="#95c19d"/>
    <g id="Group_1243" data-name="Group 1243" transform="translate(2.23 131.574)">
      <path id="Path_780" data-name="Path 780" d="M47.4,239a.174.174,0,0,1-.2.2H39.4a.174.174,0,0,1-.2-.2h0a.174.174,0,0,1,.2-.2h7.8q.2.1.2.2Z" transform="translate(-38.216 -238.8)" fill="#b1ddb7"/>
      <circle id="Ellipse_86" data-name="Ellipse 86" cx="0.197" cy="0.197" r="0.197" transform="translate(0 0)" fill="#b1ddb7"/>
      <path id="Path_781" data-name="Path 781" d="M348.8,239a.174.174,0,0,1,.2-.2h7.8a.174.174,0,0,1,.2.2h0a.174.174,0,0,1-.2.2H349a.174.174,0,0,1-.2-.2Z" transform="translate(-322.439 -238.8)" fill="#b1ddb7"/>
      <circle id="Ellipse_87" data-name="Ellipse 87" cx="0.197" cy="0.197" r="0.197" transform="translate(35.148 0)" fill="#b1ddb7"/>
    </g>
    <path id="Path_782" data-name="Path 782" d="M242.57,185.908a1.149,1.149,0,0,1-1.115-1.115.832.832,0,0,1,.066-.393,1.118,1.118,0,0,0,.393,2.164,1.124,1.124,0,0,0,1.049-.721C242.9,185.908,242.767,185.908,242.57,185.908Z" transform="translate(-221.062 -57.285)" fill="#95c19d"/>
    <g id="Group_1244" data-name="Group 1244" transform="translate(4.131 128.164)">
      <circle id="Ellipse_88" data-name="Ellipse 88" cx="0.197" cy="0.197" r="0.197" transform="translate(0 0)" fill="#4d9356"/>
      <circle id="Ellipse_89" data-name="Ellipse 89" cx="0.197" cy="0.197" r="0.197" transform="translate(1.049 0)" fill="#4d9356"/>
      <circle id="Ellipse_90" data-name="Ellipse 90" cx="0.197" cy="0.197" r="0.197" transform="translate(2.098 0)" fill="#4d9356"/>
      <circle id="Ellipse_91" data-name="Ellipse 91" cx="0.197" cy="0.197" r="0.197" transform="translate(3.148 0)" fill="#4d9356"/>
      <path id="Path_783" data-name="Path 783" d="M101.993,197.4a.2.2,0,1,1-.2-.2A.209.209,0,0,1,101.993,197.4Z" transform="translate(-97.403 -197.2)" fill="#4d9356"/>
      <circle id="Ellipse_92" data-name="Ellipse 92" cx="0.197" cy="0.197" r="0.197" transform="translate(5.18 0)" fill="#4d9356"/>
      <circle id="Ellipse_93" data-name="Ellipse 93" cx="0.197" cy="0.197" r="0.197" transform="translate(6.23 0)" fill="#4d9356"/>
      <circle id="Ellipse_94" data-name="Ellipse 94" cx="0.197" cy="0.197" r="0.197" transform="translate(7.279 0)" fill="#4d9356"/>
      <circle id="Ellipse_95" data-name="Ellipse 95" cx="0.197" cy="0.197" r="0.197" transform="translate(0 1.18)" fill="#4d9356"/>
      <circle id="Ellipse_96" data-name="Ellipse 96" cx="0.197" cy="0.197" r="0.197" transform="translate(1.049 1.18)" fill="#4d9356"/>
      <circle id="Ellipse_97" data-name="Ellipse 97" cx="0.197" cy="0.197" r="0.197" transform="translate(2.098 1.18)" fill="#4d9356"/>
      <circle id="Ellipse_98" data-name="Ellipse 98" cx="0.197" cy="0.197" r="0.197" transform="translate(3.148 1.18)" fill="#4d9356"/>
      <circle id="Ellipse_99" data-name="Ellipse 99" cx="0.197" cy="0.197" r="0.197" transform="translate(4.131 1.18)" fill="#4d9356"/>
      <circle id="Ellipse_100" data-name="Ellipse 100" cx="0.197" cy="0.197" r="0.197" transform="translate(5.18 1.18)" fill="#4d9356"/>
      <circle id="Ellipse_101" data-name="Ellipse 101" cx="0.197" cy="0.197" r="0.197" transform="translate(6.23 1.18)" fill="#4d9356"/>
      <circle id="Ellipse_102" data-name="Ellipse 102" cx="0.197" cy="0.197" r="0.197" transform="translate(7.279 1.18)" fill="#4d9356"/>
      <circle id="Ellipse_103" data-name="Ellipse 103" cx="0.197" cy="0.197" r="0.197" transform="translate(0 2.295)" fill="#4d9356"/>
      <circle id="Ellipse_104" data-name="Ellipse 104" cx="0.197" cy="0.197" r="0.197" transform="translate(1.049 2.295)" fill="#4d9356"/>
      <circle id="Ellipse_105" data-name="Ellipse 105" cx="0.197" cy="0.197" r="0.197" transform="translate(2.098 2.295)" fill="#4d9356"/>
      <circle id="Ellipse_106" data-name="Ellipse 106" cx="0.197" cy="0.197" r="0.197" transform="translate(3.148 2.295)" fill="#4d9356"/>
      <circle id="Ellipse_107" data-name="Ellipse 107" cx="0.197" cy="0.197" r="0.197" transform="translate(4.131 2.295)" fill="#4d9356"/>
      <circle id="Ellipse_108" data-name="Ellipse 108" cx="0.197" cy="0.197" r="0.197" transform="translate(5.18 2.295)" fill="#4d9356"/>
      <circle id="Ellipse_109" data-name="Ellipse 109" cx="0.197" cy="0.197" r="0.197" transform="translate(6.23 2.295)" fill="#4d9356"/>
      <circle id="Ellipse_110" data-name="Ellipse 110" cx="0.197" cy="0.197" r="0.197" transform="translate(7.279 2.295)" fill="#4d9356"/>
      <circle id="Ellipse_111" data-name="Ellipse 111" cx="0.197" cy="0.197" r="0.197" transform="translate(0 4.525)" fill="#4d9356"/>
      <circle id="Ellipse_112" data-name="Ellipse 112" cx="0.197" cy="0.197" r="0.197" transform="translate(1.049 4.525)" fill="#4d9356"/>
      <circle id="Ellipse_113" data-name="Ellipse 113" cx="0.197" cy="0.197" r="0.197" transform="translate(2.098 4.525)" fill="#4d9356"/>
      <circle id="Ellipse_114" data-name="Ellipse 114" cx="0.197" cy="0.197" r="0.197" transform="translate(3.148 4.525)" fill="#4d9356"/>
      <path id="Path_784" data-name="Path 784" d="M101.993,252.6a.2.2,0,1,1-.2-.2A.209.209,0,0,1,101.993,252.6Z" transform="translate(-97.403 -247.875)" fill="#4d9356"/>
      <circle id="Ellipse_115" data-name="Ellipse 115" cx="0.197" cy="0.197" r="0.197" transform="translate(5.18 4.525)" fill="#4d9356"/>
      <circle id="Ellipse_116" data-name="Ellipse 116" cx="0.197" cy="0.197" r="0.197" transform="translate(6.23 4.525)" fill="#4d9356"/>
      <circle id="Ellipse_117" data-name="Ellipse 117" cx="0.197" cy="0.197" r="0.197" transform="translate(7.279 4.525)" fill="#4d9356"/>
      <circle id="Ellipse_118" data-name="Ellipse 118" cx="0.197" cy="0.197" r="0.197" transform="translate(0 5.705)" fill="#4d9356"/>
      <circle id="Ellipse_119" data-name="Ellipse 119" cx="0.197" cy="0.197" r="0.197" transform="translate(1.049 5.705)" fill="#4d9356"/>
      <circle id="Ellipse_120" data-name="Ellipse 120" cx="0.197" cy="0.197" r="0.197" transform="translate(2.098 5.705)" fill="#4d9356"/>
      <circle id="Ellipse_121" data-name="Ellipse 121" cx="0.197" cy="0.197" r="0.197" transform="translate(3.148 5.705)" fill="#4d9356"/>
      <circle id="Ellipse_122" data-name="Ellipse 122" cx="0.197" cy="0.197" r="0.197" transform="translate(4.131 5.705)" fill="#4d9356"/>
      <circle id="Ellipse_123" data-name="Ellipse 123" cx="0.197" cy="0.197" r="0.197" transform="translate(5.18 5.705)" fill="#4d9356"/>
      <circle id="Ellipse_124" data-name="Ellipse 124" cx="0.197" cy="0.197" r="0.197" transform="translate(6.23 5.705)" fill="#4d9356"/>
      <circle id="Ellipse_125" data-name="Ellipse 125" cx="0.197" cy="0.197" r="0.197" transform="translate(7.279 5.705)" fill="#4d9356"/>
      <circle id="Ellipse_126" data-name="Ellipse 126" cx="0.197" cy="0.197" r="0.197" transform="translate(0 6.82)" fill="#4d9356"/>
      <circle id="Ellipse_127" data-name="Ellipse 127" cx="0.197" cy="0.197" r="0.197" transform="translate(1.049 6.82)" fill="#4d9356"/>
      <circle id="Ellipse_128" data-name="Ellipse 128" cx="0.197" cy="0.197" r="0.197" transform="translate(2.098 6.82)" fill="#4d9356"/>
      <circle id="Ellipse_129" data-name="Ellipse 129" cx="0.197" cy="0.197" r="0.197" transform="translate(3.148 6.82)" fill="#4d9356"/>
      <circle id="Ellipse_130" data-name="Ellipse 130" cx="0.197" cy="0.197" r="0.197" transform="translate(4.131 6.82)" fill="#4d9356"/>
      <circle id="Ellipse_131" data-name="Ellipse 131" cx="0.197" cy="0.197" r="0.197" transform="translate(5.18 6.82)" fill="#4d9356"/>
      <circle id="Ellipse_132" data-name="Ellipse 132" cx="0.197" cy="0.197" r="0.197" transform="translate(6.23 6.82)" fill="#4d9356"/>
      <circle id="Ellipse_133" data-name="Ellipse 133" cx="0.197" cy="0.197" r="0.197" transform="translate(7.279 6.82)" fill="#4d9356"/>
      <circle id="Ellipse_134" data-name="Ellipse 134" cx="0.197" cy="0.197" r="0.197" transform="translate(24.066 0)" fill="#4d9356"/>
      <circle id="Ellipse_135" data-name="Ellipse 135" cx="0.197" cy="0.197" r="0.197" transform="translate(25.115 0)" fill="#4d9356"/>
      <circle id="Ellipse_136" data-name="Ellipse 136" cx="0.197" cy="0.197" r="0.197" transform="translate(26.164 0)" fill="#4d9356"/>
      <circle id="Ellipse_137" data-name="Ellipse 137" cx="0.197" cy="0.197" r="0.197" transform="translate(27.213 0)" fill="#4d9356"/>
      <path id="Path_785" data-name="Path 785" d="M395.593,197.4a.2.2,0,1,1-.2-.2A.3.3,0,0,1,395.593,197.4Z" transform="translate(-366.938 -197.2)" fill="#4d9356"/>
      <circle id="Ellipse_138" data-name="Ellipse 138" cx="0.197" cy="0.197" r="0.197" transform="translate(29.246 0)" fill="#4d9356"/>
      <circle id="Ellipse_139" data-name="Ellipse 139" cx="0.197" cy="0.197" r="0.197" transform="translate(30.295 0)" fill="#4d9356"/>
      <circle id="Ellipse_140" data-name="Ellipse 140" cx="0.197" cy="0.197" r="0.197" transform="translate(31.344 0)" fill="#4d9356"/>
      <circle id="Ellipse_141" data-name="Ellipse 141" cx="0.197" cy="0.197" r="0.197" transform="translate(24.066 1.18)" fill="#4d9356"/>
      <circle id="Ellipse_142" data-name="Ellipse 142" cx="0.197" cy="0.197" r="0.197" transform="translate(25.115 1.18)" fill="#4d9356"/>
      <circle id="Ellipse_143" data-name="Ellipse 143" cx="0.197" cy="0.197" r="0.197" transform="translate(26.164 1.18)" fill="#4d9356"/>
      <circle id="Ellipse_144" data-name="Ellipse 144" cx="0.197" cy="0.197" r="0.197" transform="translate(27.213 1.18)" fill="#4d9356"/>
      <circle id="Ellipse_145" data-name="Ellipse 145" cx="0.197" cy="0.197" r="0.197" transform="translate(28.197 1.18)" fill="#4d9356"/>
      <circle id="Ellipse_146" data-name="Ellipse 146" cx="0.197" cy="0.197" r="0.197" transform="translate(29.246 1.18)" fill="#4d9356"/>
      <circle id="Ellipse_147" data-name="Ellipse 147" cx="0.197" cy="0.197" r="0.197" transform="translate(30.295 1.18)" fill="#4d9356"/>
      <circle id="Ellipse_148" data-name="Ellipse 148" cx="0.197" cy="0.197" r="0.197" transform="translate(31.344 1.18)" fill="#4d9356"/>
      <circle id="Ellipse_149" data-name="Ellipse 149" cx="0.197" cy="0.197" r="0.197" transform="translate(24.066 2.295)" fill="#4d9356"/>
      <circle id="Ellipse_150" data-name="Ellipse 150" cx="0.197" cy="0.197" r="0.197" transform="translate(25.115 2.295)" fill="#4d9356"/>
      <circle id="Ellipse_151" data-name="Ellipse 151" cx="0.197" cy="0.197" r="0.197" transform="translate(26.164 2.295)" fill="#4d9356"/>
      <circle id="Ellipse_152" data-name="Ellipse 152" cx="0.197" cy="0.197" r="0.197" transform="translate(27.213 2.295)" fill="#4d9356"/>
      <circle id="Ellipse_153" data-name="Ellipse 153" cx="0.197" cy="0.197" r="0.197" transform="translate(28.197 2.295)" fill="#4d9356"/>
      <circle id="Ellipse_154" data-name="Ellipse 154" cx="0.197" cy="0.197" r="0.197" transform="translate(29.246 2.295)" fill="#4d9356"/>
      <circle id="Ellipse_155" data-name="Ellipse 155" cx="0.197" cy="0.197" r="0.197" transform="translate(30.295 2.295)" fill="#4d9356"/>
      <circle id="Ellipse_156" data-name="Ellipse 156" cx="0.197" cy="0.197" r="0.197" transform="translate(31.344 2.295)" fill="#4d9356"/>
      <circle id="Ellipse_157" data-name="Ellipse 157" cx="0.197" cy="0.197" r="0.197" transform="translate(24.066 4.525)" fill="#4d9356"/>
      <circle id="Ellipse_158" data-name="Ellipse 158" cx="0.197" cy="0.197" r="0.197" transform="translate(25.115 4.525)" fill="#4d9356"/>
      <circle id="Ellipse_159" data-name="Ellipse 159" cx="0.197" cy="0.197" r="0.197" transform="translate(26.164 4.525)" fill="#4d9356"/>
      <circle id="Ellipse_160" data-name="Ellipse 160" cx="0.197" cy="0.197" r="0.197" transform="translate(27.213 4.525)" fill="#4d9356"/>
      <path id="Path_786" data-name="Path 786" d="M395.593,252.6a.2.2,0,1,1-.393,0c0-.131.066-.2.131-.2A.293.293,0,0,1,395.593,252.6Z" transform="translate(-366.938 -247.875)" fill="#4d9356"/>
      <circle id="Ellipse_161" data-name="Ellipse 161" cx="0.197" cy="0.197" r="0.197" transform="translate(29.246 4.525)" fill="#4d9356"/>
      <circle id="Ellipse_162" data-name="Ellipse 162" cx="0.197" cy="0.197" r="0.197" transform="translate(30.295 4.525)" fill="#4d9356"/>
      <circle id="Ellipse_163" data-name="Ellipse 163" cx="0.197" cy="0.197" r="0.197" transform="translate(31.344 4.525)" fill="#4d9356"/>
      <circle id="Ellipse_164" data-name="Ellipse 164" cx="0.197" cy="0.197" r="0.197" transform="translate(24.066 5.705)" fill="#4d9356"/>
      <circle id="Ellipse_165" data-name="Ellipse 165" cx="0.197" cy="0.197" r="0.197" transform="translate(25.115 5.705)" fill="#4d9356"/>
      <circle id="Ellipse_166" data-name="Ellipse 166" cx="0.197" cy="0.197" r="0.197" transform="translate(26.164 5.705)" fill="#4d9356"/>
      <circle id="Ellipse_167" data-name="Ellipse 167" cx="0.197" cy="0.197" r="0.197" transform="translate(27.213 5.705)" fill="#4d9356"/>
      <circle id="Ellipse_168" data-name="Ellipse 168" cx="0.197" cy="0.197" r="0.197" transform="translate(28.197 5.705)" fill="#4d9356"/>
      <circle id="Ellipse_169" data-name="Ellipse 169" cx="0.197" cy="0.197" r="0.197" transform="translate(29.246 5.705)" fill="#4d9356"/>
      <circle id="Ellipse_170" data-name="Ellipse 170" cx="0.197" cy="0.197" r="0.197" transform="translate(30.295 5.705)" fill="#4d9356"/>
      <circle id="Ellipse_171" data-name="Ellipse 171" cx="0.197" cy="0.197" r="0.197" transform="translate(31.344 5.705)" fill="#4d9356"/>
      <circle id="Ellipse_172" data-name="Ellipse 172" cx="0.197" cy="0.197" r="0.197" transform="translate(24.066 6.82)" fill="#4d9356"/>
      <circle id="Ellipse_173" data-name="Ellipse 173" cx="0.197" cy="0.197" r="0.197" transform="translate(25.115 6.82)" fill="#4d9356"/>
      <circle id="Ellipse_174" data-name="Ellipse 174" cx="0.197" cy="0.197" r="0.197" transform="translate(26.164 6.82)" fill="#4d9356"/>
      <circle id="Ellipse_175" data-name="Ellipse 175" cx="0.197" cy="0.197" r="0.197" transform="translate(27.213 6.82)" fill="#4d9356"/>
      <circle id="Ellipse_176" data-name="Ellipse 176" cx="0.197" cy="0.197" r="0.197" transform="translate(28.197 6.82)" fill="#4d9356"/>
      <circle id="Ellipse_177" data-name="Ellipse 177" cx="0.197" cy="0.197" r="0.197" transform="translate(29.246 6.82)" fill="#4d9356"/>
      <circle id="Ellipse_178" data-name="Ellipse 178" cx="0.197" cy="0.197" r="0.197" transform="translate(30.295 6.82)" fill="#4d9356"/>
      <circle id="Ellipse_179" data-name="Ellipse 179" cx="0.197" cy="0.197" r="0.197" transform="translate(31.344 6.82)" fill="#4d9356"/>
    </g>
  </g>
</svg>
