<svg xmlns="http://www.w3.org/2000/svg" width="14.286" height="17.143" viewBox="0 0 14.286 17.143">
  <path id="Delete_SVG" data-name="Delete SVG" d="M8.429,1.429a.714.714,0,0,0-.714.714v.714h2.857V2.143a.714.714,0,0,0-.714-.714ZM12,2.857V2.143A2.143,2.143,0,0,0,9.857,0H8.429A2.143,2.143,0,0,0,6.286,2.143v.714H2.714a.714.714,0,1,0,0,1.429h.075L4.006,15.237a2.143,2.143,0,0,0,2.13,1.906H12.15a2.143,2.143,0,0,0,2.13-1.906L15.5,4.286h.075a.714.714,0,1,0,0-1.429Zm2.059,1.429H4.227l1.2,10.793a.714.714,0,0,0,.71.635H12.15a.714.714,0,0,0,.71-.635ZM7.714,6.429a.714.714,0,0,1,.714.714v5.714a.714.714,0,1,1-1.429,0V7.143A.714.714,0,0,1,7.714,6.429Zm2.857,0a.714.714,0,0,1,.714.714v5.714a.714.714,0,0,1-1.429,0V7.143A.714.714,0,0,1,10.571,6.429Z" transform="translate(-2)" fill="#f5f7f9" fill-rule="evenodd"/>
</svg>
