<svg id="edit_pin" xmlns="http://www.w3.org/2000/svg" width="15.35" height="15.345" viewBox="0 0 15.35 15.345">
  <g id="Group_539" data-name="Group 539">
    <path id="Path_289" data-name="Path 289" d="M85.107,147.531l-7.226,7.229a.537.537,0,1,0,.758.761l7.226-7.226a.539.539,0,0,0,0-.761A.532.532,0,0,0,85.107,147.531Z" transform="translate(-75.289 -142.763)" fill="#fff"/>
    <path id="Path_290" data-name="Path 290" d="M302.579,6.092a.536.536,0,0,0,.379-.157l.789-.789a2.334,2.334,0,0,0,0-3.3L302.669.77a2.336,2.336,0,0,0-3.3,0l-.789.789a.539.539,0,0,0,0,.761L302.2,5.939A.546.546,0,0,0,302.579,6.092ZM300.13,1.524a1.262,1.262,0,0,1,1.785,0L302.992,2.6a1.26,1.26,0,0,1,0,1.782l-.413.413-2.862-2.862Z" transform="translate(-289.079 -0.087)" fill="#fff"/>
    <path id="Path_291" data-name="Path 291" d="M5.1,101.385l7.624-7.624A.538.538,0,0,0,11.962,93l-7.492,7.5-3.306.445.445-3.306L8.765,90.48A.538.538,0,0,0,8,89.719L.721,97.008a.533.533,0,0,0-.153.307L0,101.5a.537.537,0,0,0,.532.607.558.558,0,0,0,.072-.006l4.183-.564A.5.5,0,0,0,5.1,101.385Z" transform="translate(0 -86.761)" fill="#fff"/>
  </g>
</svg>
