<svg id="Group_447" data-name="Group 447" xmlns="http://www.w3.org/2000/svg" width="21" height="21" viewBox="0 0 21 21">
  <path id="Path" d="M0,0H21V21H0Z" fill="none" fill-rule="evenodd"/>
  <path id="_-Icon-Color" data-name="🔹-Icon-Color" d="M13.5,18.5h1.75V16.75H13.5ZM17,8h1.75V6.25H17ZM3,4.5V16.75A1.755,1.755,0,0,0,4.75,18.5H7.375a.875.875,0,0,0,0-1.75H5.625a.878.878,0,0,1-.875-.875V5.375A.878.878,0,0,1,5.625,4.5h1.75a.875.875,0,0,0,0-1.75H4.75A1.755,1.755,0,0,0,3,4.5ZM17,2.75V4.5h1.75A1.755,1.755,0,0,0,17,2.75Zm-6.125,17.5a.878.878,0,0,0,.875-.875V1.875a.875.875,0,0,0-1.75,0v17.5A.878.878,0,0,0,10.875,20.25ZM17,15h1.75V13.25H17ZM13.5,4.5h1.75V2.75H13.5Zm3.5,7h1.75V9.75H17Zm0,7a1.755,1.755,0,0,0,1.75-1.75H17Z" transform="translate(-0.375 -0.125)" fill="#f5f7f9" fill-rule="evenodd"/>
</svg>
