<svg xmlns="http://www.w3.org/2000/svg" width="20.004" height="20" viewBox="0 0 20.004 20">
  <g id="Dribbble-Light-Preview" transform="translate(0 0)">
    <g id="icons">
      <path id="instagram-_167_" data-name="instagram-[#167]" d="M289.871,7279.12a5.519,5.519,0,0,0-5.789,5.781c-.046,1-.314,8.6.462,10.592a5.035,5.035,0,0,0,2.912,2.9,7.026,7.026,0,0,0,2.416.46c8.862.4,12.148.189,13.533-3.361a7.214,7.214,0,0,0,.462-2.41c.405-8.882-.066-10.812-1.61-12.353-1.225-1.221-2.667-2.051-12.385-1.61m.081,17.954a5.84,5.84,0,0,1-1.848-.34,3.279,3.279,0,0,1-1.888-1.89c-.591-1.511-.4-8.7-.342-9.863a4.266,4.266,0,0,1,1.086-2.991c1-.99,2.281-1.48,11.036-1.08a4.268,4.268,0,0,1,2.993,1.08c1,.991,1.489,2.291,1.087,11.013a5.45,5.45,0,0,1-.342,1.84c-.9,2.311-2.974,2.631-11.782,2.23m8.141-13.384a1.195,1.195,0,1,0,1.194-1.19,1.191,1.191,0,0,0-1.194,1.19m-9.229,5.3a5.111,5.111,0,1,0,5.11-5.1,5.1,5.1,0,0,0-5.11,5.1m1.793,0a3.317,3.317,0,1,1,3.317,3.311,3.312,3.312,0,0,1-3.317-3.311" transform="translate(-284 -7279)" fill="#211f21" fill-rule="evenodd"/>
    </g>
  </g>
</svg>
