<svg xmlns="http://www.w3.org/2000/svg" width="23.334" height="25.05" viewBox="0 0 23.334 25.05">
  <g id="logout" transform="translate(0 0)">
    <path id="Path_298" data-name="Path 298" d="M.986,14.418l1.529.01a10.411,10.411,0,0,0,1.367,3.606L2.8,19.189a1.121,1.121,0,0,0-.01,1.5l1.172,1.273a.945.945,0,0,0,1.4.01l1.086-1.156A8.922,8.922,0,0,0,9.79,22.329l-.01,1.642a1.029,1.029,0,0,0,.986,1.069l1.667.01a1.028,1.028,0,0,0,1-1.059l.01-1.642A8.957,8.957,0,0,0,16.8,20.882l1.077,1.166a.945.945,0,0,0,1.4.01L20.462,20.8a1.121,1.121,0,0,0,.01-1.5l-1.077-1.166A10.335,10.335,0,0,0,20.8,14.54l1.529.01a1.028,1.028,0,0,0,1-1.059l.01-1.79a1.029,1.029,0,0,0-.986-1.069l-1.529-.01a10.411,10.411,0,0,0-1.367-3.606l1.086-1.156a1.121,1.121,0,0,0,.01-1.5L19.376,3.084a.945.945,0,0,0-1.4-.01L16.889,4.23a8.922,8.922,0,0,0-3.344-1.509l.01-1.642A1.029,1.029,0,0,0,12.568.011L10.9,0a1.028,1.028,0,0,0-1,1.059L9.89,2.7A8.892,8.892,0,0,0,6.532,4.168L5.455,3a.945.945,0,0,0-1.4-.01L2.873,4.25a1.121,1.121,0,0,0-.01,1.5L3.94,6.92a10.335,10.335,0,0,0-1.405,3.59L1.005,10.5a1.028,1.028,0,0,0-1,1.059L0,13.349A1.033,1.033,0,0,0,.986,14.418ZM8.542,9.134a4.223,4.223,0,0,1,6.274.036,5.011,5.011,0,0,1-.033,6.736,4.223,4.223,0,0,1-6.274-.036A5.011,5.011,0,0,1,8.542,9.134Z" transform="translate(0 0)"/>
  </g>
</svg>
