<svg xmlns="http://www.w3.org/2000/svg" width="25.88" height="24.333" viewBox="0 0 25.88 24.333">
  <g id="my_orders" transform="translate(-42.885 -640.827)">
    <path id="Path_240" data-name="Path 240" d="M27.7,7.71a.863.863,0,0,0-.681-.336H7.288l-1.022-3A.863.863,0,0,0,5.45,3.79H2.863a.863.863,0,0,0,0,1.725H4.834L10.5,22.184a.863.863,0,0,0,.815.582H23.564a.863.863,0,0,0,0-1.725H11.92l-.63-1.859H24.427a.862.862,0,0,0,.837-.638L27.851,8.461a.863.863,0,0,0-.155-.75Z" transform="translate(40.885 637.037)" fill="#211f21"/>
    <path id="Path_241" data-name="Path 241" d="M26.98,49.49a2.312,2.312,0,0,0,0,4.623A2.312,2.312,0,0,0,26.98,49.49Z" transform="translate(27.981 611.047)" fill="#211f21"/>
    <path id="Path_242" data-name="Path 242" d="M44.39,49.49a2.312,2.312,0,0,0,0,4.623A2.312,2.312,0,0,0,44.39,49.49Z" transform="translate(18.079 611.047)" fill="#211f21"/>
  </g>
</svg>
