<svg xmlns="http://www.w3.org/2000/svg" width="22.338" height="27" viewBox="0 0 22.338 27">
  <g id="_13252117381571183079" data-name="13252117381571183079" transform="translate(1.016 1)">
    <path id="Path_762" data-name="Path 762" d="M26,21.5,25,20a14.833,14.833,0,0,1-2.4-8.2,6.725,6.725,0,0,0-4.7-6.5,2.038,2.038,0,0,0-3.8,0,6.725,6.725,0,0,0-4.7,6.5A14.833,14.833,0,0,1,7,20L6,21.5A.954.954,0,0,0,6.8,23H25.1A1.013,1.013,0,0,0,26,21.5Z" transform="translate(-5.843 -4)" fill="none" stroke="#000" stroke-linejoin="round" stroke-miterlimit="10" stroke-width="2"/>
    <path id="Path_763" data-name="Path 763" d="M19,26a3,3,0,0,1-6,0" transform="translate(-5.843 -4)" fill="none" stroke="#000" stroke-linejoin="round" stroke-miterlimit="10" stroke-width="2"/>
  </g>
</svg>
