<svg xmlns="http://www.w3.org/2000/svg" width="37.407" height="39.376" viewBox="0 0 37.407 39.376">
  <path id="offers" d="M33.323,7444.237a18.7,18.7,0,1,1-20.652-.394c-1.73,4.745-4.562,7.757-3.281,12.8,1.081,4.254,4.469,7.089,7.538,6.28,2.638-.688,4.2-3.819,3.907-7.4-.293-3.523-2.4-5.453-5.03-7.9l1.914-2.559,3.734,3.9-1.644-5.316L22.915,7439l2.85,4.566-1.728,5.672,3.732-4.1,1.755,2.343c-2,2.52-4.535,4.056-4.587,7.58-.041,2.774,1.17,7.187,3.759,7.854,3.069.809,6.455-2.026,7.538-6.28,1.131-4.449-1.53-8.386-2.91-12.4" transform="translate(-4 -7439)" fill-rule="evenodd"/>
</svg>
