<svg id="search" xmlns="http://www.w3.org/2000/svg" xmlns:xlink="http://www.w3.org/1999/xlink" width="21.989" height="21.989" viewBox="0 0 21.989 21.989">
  <defs>
    <clipPath id="clip-path">
      <path id="Clip_2" data-name="Clip 2" d="M0,0H21.989V21.989H0Z" fill="none"/>
    </clipPath>
  </defs>
  <g id="Group_3" data-name="Group 3">
    <path id="Clip_2-2" data-name="Clip 2" d="M0,0H21.989V21.989H0Z" fill="none"/>
    <g id="Group_3-2" data-name="Group 3" clip-path="url(#clip-path)">
      <path id="Fill_1" data-name="Fill 1" d="M21.134,21.989a.846.846,0,0,1-.6-.25l-5.367-5.367a9.266,9.266,0,1,1,1.209-1.209l5.367,5.367a.856.856,0,0,1,0,1.209A.847.847,0,0,1,21.134,21.989ZM9.255,1.71A7.545,7.545,0,1,0,16.8,9.256,7.554,7.554,0,0,0,9.255,1.71Z" transform="translate(0 0)" fill="#fff"/>
    </g>
  </g>
</svg>
