<svg xmlns="http://www.w3.org/2000/svg" width="19.667" height="19.667" viewBox="0 0 19.667 19.667">
  <g id="XMLID_2332_" transform="translate(0 0)">
    <path id="XMLID_2334_" d="M20.667,10.3A9.694,9.694,0,0,0,1.3,10.153v.454a9.775,9.775,0,0,0,1.362,4.917L1,20.667,6.295,19a9.684,9.684,0,0,0,14.372-8.4Zm-9.682,8.32a7.6,7.6,0,0,1-4.463-1.362l-3.1.983L4.4,15.22a7.891,7.891,0,0,1-1.513-4.69,2.573,2.573,0,0,1,.076-.756,7.944,7.944,0,0,1,8.018-7.262,8.087,8.087,0,0,1,8.094,7.413v.605A8.1,8.1,0,0,1,10.985,18.624Z" transform="translate(-1 -1)" fill="#211f21" fill-rule="evenodd"/>
    <path id="XMLID_2333_" d="M13.949,12.041c-.147-.1-.934-.442-1.032-.492-.147-.049-.246-.1-.344.1a6.243,6.243,0,0,1-.492.59.291.291,0,0,1-.344.049,5.694,5.694,0,0,1-1.229-.737,3.688,3.688,0,0,1-.836-1.032.21.21,0,0,1,.049-.3c.049-.049.147-.2.246-.246a.048.048,0,0,1,.049-.049c.049-.049.049-.1.1-.2a.219.219,0,0,0,0-.246c-.049-.1-.344-.836-.492-1.131s-.246-.246-.344-.246H8.983c-.148-.148-.3-.1-.442.049A1.616,1.616,0,0,0,8,9.435a2.091,2.091,0,0,0,.1.541,4.128,4.128,0,0,0,.541,1.082,6.887,6.887,0,0,0,2.606,2.311c1.573.59,1.573.393,1.868.393a1.315,1.315,0,0,0,1.032-.737,1.087,1.087,0,0,0,.1-.737C14.195,12.189,14.1,12.14,13.949,12.041Z" transform="translate(-0.919 -1.179)" fill="#211f21" fill-rule="evenodd"/>
  </g>
</svg>
